<?xml version="1.0" encoding="utf-8"?>
<!-- Generator: Adobe Illustrator 21.0.0, SVG Export Plug-In . SVG Version: 6.00 Build 0)  -->
<svg version="1.1" id="Layer_1" xmlns="http://www.w3.org/2000/svg" xmlns:xlink="http://www.w3.org/1999/xlink" x="0px" y="0px"
	 viewBox="0 0 50 50" style="enable-background:new 0 0 50 50;" xml:space="preserve">
<style type="text/css">
	.st0{fill:#E9FFFD;}
	.st1{fill:#664B33;}
	.st2{fill:#D4F5FF;}
	.st3{fill:#156CFF;}
	.st4{opacity:0.3;fill:#20272E;enable-background:new    ;}
	.st5{fill:none;stroke:#FFFFFF;stroke-miterlimit:10;}
</style>
<g id="bottle">
	<path class="st0" d="M27.5,24.2V13.4h-6v10.8c-4.9,1.3-8.4,5.8-8.4,11c0,6.3,5.1,11.4,11.4,11.4s11.4-5.1,11.4-11.4
		C35.9,29.9,32.3,25.5,27.5,24.2z"/>
	<path class="st1" d="M25.6,4.7h-2.2c-1,0-1.9,0.8-1.9,1.9v5.3h5.9V6.6C27.5,5.5,26.6,4.7,25.6,4.7z"/>
	<path class="st2" d="M27.5,10.7h-5.8c-1.1,0-1.9,0.9-1.9,1.9l0,0c0,1.1,0.9,1.9,1.9,1.9h5.8c1.1,0,1.9-0.9,1.9-1.9l0,0
		C29.4,11.6,28.5,10.7,27.5,10.7z"/>
	<path class="st3" d="M17.2,30.6c-0.9,1.3-1.4,2.9-1.4,4.6c0,4.7,3.8,8.6,8.6,8.6s8.6-3.8,8.6-8.6c0-1.7-0.5-3.3-1.4-4.6H17.2z"/>
	<path class="st4" d="M27.6,24.2v-9.6c1,0,1.9-0.9,1.9-1.9c0-1-0.8-1.9-1.9-1.9V6.5c0-1-0.8-1.9-1.9-1.9h-1.1v42
		c6.3,0,11.4-5.1,11.4-11.4C36,29.9,32.4,25.5,27.6,24.2z"/>
	<path class="st5" d="M17.3,35.2c0,4,3.2,7.2,7.2,7.2"/>
</g>
</svg>
