<?xml version="1.0" encoding="utf-8"?>
<!-- Generator: Adobe Illustrator 21.0.0, SVG Export Plug-In . SVG Version: 6.00 Build 0)  -->
<svg version="1.1" id="Layer_1" xmlns="http://www.w3.org/2000/svg" xmlns:xlink="http://www.w3.org/1999/xlink" x="0px" y="0px"
	 viewBox="0 0 50 50" style="enable-background:new 0 0 50 50;" xml:space="preserve">
<style type="text/css">
	.st0{fill:#E9FFFD;}
	.st1{fill:#77007F;}
	.st2{fill:#8C7564;}
	.st3{fill:#D4F5FF;}
	.st4{fill:none;stroke:#FFFFFF;stroke-miterlimit:10;}
	.st5{opacity:0.2;}
</style>
<g id="bottle">
	<path class="st0" d="M29,13v8c2-2,6-4,8-3c12.5,6.2-10,29-12,29S0.5,24.2,13,18c2-1,6,1,8,3v-8H29z"/>
	<path class="st1" d="M13,27c1.4,7.4,10.8,17,12,17s10.6-9.6,12-17H13z"/>
	<path class="st2" d="M27,4h-4c-1,0-2,1-2,2v6h8V6C29,5,28,4,27,4z"/>
	<path class="st3" d="M21,15c-2,0-2-2-2-2c0-1.1,0.9-2,2-2h8c1.1,0,2,0.9,2,2c0,0,0,2-2,2H21z"/>
	<path class="st4" d="M12.5,22.5c0,4,8,18,12,18"/>
	<path class="st5" d="M25,47c2,0,24.5-22.8,12-29c-2-1-6,1-8,3v-6c0,0,2,0,2-2s-2-2-2-2s0-3,0-5s-1-2-4-2V47z"/>
</g>
</svg>
